<mxfile host="Electron" modified="2024-02-24T17:21:00.056Z" agent="Mozilla/5.0 (Macintosh; Intel Mac OS X 10_15_7) AppleWebKit/537.36 (KHTML, like Gecko) draw.io/23.1.5 Chrome/120.0.6099.109 Electron/28.1.0 Safari/537.36" etag="8LBKJsujjwC9g2gCirNP" version="23.1.5" type="device">
  <diagram name="Page-1" id="5f0bae14-7c28-e335-631c-24af17079c00">
    <mxGraphModel dx="719" dy="503" grid="0" gridSize="10" guides="1" tooltips="1" connect="1" arrows="1" fold="1" page="1" pageScale="1" pageWidth="1100" pageHeight="850" background="none" math="0" shadow="0">
      <root>
        <mxCell id="0" />
        <mxCell id="1" parent="0" />
        <mxCell id="EAup55ecAgGyFru9o0X1-1" value="Person&lt;&lt;Abstract&gt;&gt;" style="swimlane;fontStyle=2;align=center;verticalAlign=top;childLayout=stackLayout;horizontal=1;startSize=26;horizontalStack=0;resizeParent=1;resizeLast=0;collapsible=1;marginBottom=0;rounded=0;shadow=0;strokeWidth=1;fontFamily=Times New Roman;fontSize=10;movable=0;resizable=0;rotatable=0;deletable=0;editable=0;locked=1;connectable=0;" vertex="1" parent="1">
          <mxGeometry x="220" y="110" width="150" height="138" as="geometry">
            <mxRectangle x="230" y="140" width="160" height="26" as="alternateBounds" />
          </mxGeometry>
        </mxCell>
        <mxCell id="EAup55ecAgGyFru9o0X1-2" value="# name: String" style="text;align=left;verticalAlign=top;spacingLeft=4;spacingRight=4;overflow=hidden;rotatable=0;points=[[0,0.5],[1,0.5]];portConstraint=eastwest;fontFamily=Times New Roman;fontSize=10;movable=0;resizable=0;deletable=0;editable=0;locked=1;connectable=0;" vertex="1" parent="EAup55ecAgGyFru9o0X1-1">
          <mxGeometry y="26" width="150" height="26" as="geometry" />
        </mxCell>
        <mxCell id="EAup55ecAgGyFru9o0X1-3" value="# phone: String" style="text;align=left;verticalAlign=top;spacingLeft=4;spacingRight=4;overflow=hidden;rotatable=0;points=[[0,0.5],[1,0.5]];portConstraint=eastwest;rounded=0;shadow=0;html=0;fontFamily=Times New Roman;fontSize=10;movable=0;resizable=0;deletable=0;editable=0;locked=1;connectable=0;" vertex="1" parent="EAup55ecAgGyFru9o0X1-1">
          <mxGeometry y="52" width="150" height="26" as="geometry" />
        </mxCell>
        <mxCell id="EAup55ecAgGyFru9o0X1-4" value="# email: String" style="text;align=left;verticalAlign=top;spacingLeft=4;spacingRight=4;overflow=hidden;rotatable=0;points=[[0,0.5],[1,0.5]];portConstraint=eastwest;rounded=0;shadow=0;html=0;fontFamily=Times New Roman;fontSize=10;movable=0;resizable=0;deletable=0;editable=0;locked=1;connectable=0;" vertex="1" parent="EAup55ecAgGyFru9o0X1-1">
          <mxGeometry y="78" width="150" height="26" as="geometry" />
        </mxCell>
        <mxCell id="EAup55ecAgGyFru9o0X1-5" value="# sex: String" style="text;align=left;verticalAlign=top;spacingLeft=4;spacingRight=4;overflow=hidden;rotatable=0;points=[[0,0.5],[1,0.5]];portConstraint=eastwest;rounded=0;shadow=0;html=0;fontFamily=Times New Roman;fontSize=10;movable=0;resizable=0;deletable=0;editable=0;locked=1;connectable=0;" vertex="1" parent="EAup55ecAgGyFru9o0X1-1">
          <mxGeometry y="104" width="150" height="26" as="geometry" />
        </mxCell>
        <mxCell id="EAup55ecAgGyFru9o0X1-6" value="" style="line;html=1;strokeWidth=1;align=left;verticalAlign=middle;spacingTop=-1;spacingLeft=3;spacingRight=3;rotatable=0;labelPosition=right;points=[];portConstraint=eastwest;fontFamily=Times New Roman;fontSize=10;movable=0;resizable=0;deletable=0;editable=0;locked=1;connectable=0;" vertex="1" parent="EAup55ecAgGyFru9o0X1-1">
          <mxGeometry y="130" width="150" height="8" as="geometry" />
        </mxCell>
        <mxCell id="EAup55ecAgGyFru9o0X1-7" value="Client" style="swimlane;fontStyle=0;align=center;verticalAlign=top;childLayout=stackLayout;horizontal=1;startSize=26;horizontalStack=0;resizeParent=1;resizeLast=0;collapsible=1;marginBottom=0;rounded=0;shadow=0;strokeWidth=1;fontFamily=Times New Roman;fontSize=10;movable=0;resizable=0;rotatable=0;deletable=0;editable=0;locked=1;connectable=0;" vertex="1" parent="1">
          <mxGeometry x="120" y="290" width="100" height="112" as="geometry">
            <mxRectangle x="130" y="380" width="160" height="26" as="alternateBounds" />
          </mxGeometry>
        </mxCell>
        <mxCell id="EAup55ecAgGyFru9o0X1-8" value="- client_id: int" style="text;align=left;verticalAlign=top;spacingLeft=4;spacingRight=4;overflow=hidden;rotatable=0;points=[[0,0.5],[1,0.5]];portConstraint=eastwest;fontFamily=Times New Roman;fontSize=10;movable=0;resizable=0;deletable=0;editable=0;locked=1;connectable=0;" vertex="1" parent="EAup55ecAgGyFru9o0X1-7">
          <mxGeometry y="26" width="100" height="26" as="geometry" />
        </mxCell>
        <mxCell id="EAup55ecAgGyFru9o0X1-9" value="- branch_id: int" style="text;align=left;verticalAlign=top;spacingLeft=4;spacingRight=4;overflow=hidden;rotatable=0;points=[[0,0.5],[1,0.5]];portConstraint=eastwest;rounded=0;shadow=0;html=0;fontFamily=Times New Roman;fontSize=10;movable=0;resizable=0;deletable=0;editable=0;locked=1;connectable=0;" vertex="1" parent="EAup55ecAgGyFru9o0X1-7">
          <mxGeometry y="52" width="100" height="26" as="geometry" />
        </mxCell>
        <mxCell id="EAup55ecAgGyFru9o0X1-10" value="- assigned_to: String" style="text;align=left;verticalAlign=top;spacingLeft=4;spacingRight=4;overflow=hidden;rotatable=0;points=[[0,0.5],[1,0.5]];portConstraint=eastwest;rounded=0;shadow=0;html=0;fontFamily=Times New Roman;fontSize=10;movable=0;resizable=0;deletable=0;editable=0;locked=1;connectable=0;" vertex="1" parent="EAup55ecAgGyFru9o0X1-7">
          <mxGeometry y="78" width="100" height="26" as="geometry" />
        </mxCell>
        <mxCell id="EAup55ecAgGyFru9o0X1-11" value="" style="line;html=1;strokeWidth=1;align=left;verticalAlign=middle;spacingTop=-1;spacingLeft=3;spacingRight=3;rotatable=0;labelPosition=right;points=[];portConstraint=eastwest;fontFamily=Times New Roman;fontSize=10;movable=0;resizable=0;deletable=0;editable=0;locked=1;connectable=0;" vertex="1" parent="EAup55ecAgGyFru9o0X1-7">
          <mxGeometry y="104" width="100" height="8" as="geometry" />
        </mxCell>
        <mxCell id="EAup55ecAgGyFru9o0X1-12" value="" style="endArrow=block;endSize=10;endFill=0;shadow=0;strokeWidth=1;rounded=0;elbow=vertical;fontFamily=Times New Roman;fontSize=10;movable=0;resizable=0;rotatable=0;deletable=0;editable=0;locked=1;connectable=0;dashed=1;" edge="1" parent="1" source="EAup55ecAgGyFru9o0X1-7" target="EAup55ecAgGyFru9o0X1-1">
          <mxGeometry width="160" relative="1" as="geometry">
            <mxPoint x="200" y="203" as="sourcePoint" />
            <mxPoint x="200" y="203" as="targetPoint" />
          </mxGeometry>
        </mxCell>
        <mxCell id="EAup55ecAgGyFru9o0X1-13" value="Employee" style="swimlane;fontStyle=0;align=center;verticalAlign=top;childLayout=stackLayout;horizontal=1;startSize=26;horizontalStack=0;resizeParent=1;resizeLast=0;collapsible=1;marginBottom=0;rounded=0;shadow=0;strokeWidth=1;fontFamily=Times New Roman;fontSize=10;movable=0;resizable=0;rotatable=0;deletable=0;editable=0;locked=1;connectable=0;" vertex="1" parent="1">
          <mxGeometry x="390" y="260" width="120" height="216" as="geometry">
            <mxRectangle x="340" y="380" width="170" height="26" as="alternateBounds" />
          </mxGeometry>
        </mxCell>
        <mxCell id="EAup55ecAgGyFru9o0X1-14" value="- emp_id: int" style="text;align=left;verticalAlign=top;spacingLeft=4;spacingRight=4;overflow=hidden;rotatable=0;points=[[0,0.5],[1,0.5]];portConstraint=eastwest;fontFamily=Times New Roman;fontSize=10;movable=0;resizable=0;deletable=0;editable=0;locked=1;connectable=0;" vertex="1" parent="EAup55ecAgGyFru9o0X1-13">
          <mxGeometry y="26" width="120" height="26" as="geometry" />
        </mxCell>
        <mxCell id="EAup55ecAgGyFru9o0X1-15" value="- branch_id: int" style="text;align=left;verticalAlign=top;spacingLeft=4;spacingRight=4;overflow=hidden;rotatable=0;points=[[0,0.5],[1,0.5]];portConstraint=eastwest;fontFamily=Times New Roman;fontSize=10;movable=0;resizable=0;deletable=0;editable=0;locked=1;connectable=0;" vertex="1" parent="EAup55ecAgGyFru9o0X1-13">
          <mxGeometry y="52" width="120" height="26" as="geometry" />
        </mxCell>
        <mxCell id="EAup55ecAgGyFru9o0X1-16" value="- super_id: String" style="text;align=left;verticalAlign=top;spacingLeft=4;spacingRight=4;overflow=hidden;rotatable=0;points=[[0,0.5],[1,0.5]];portConstraint=eastwest;fontFamily=Times New Roman;fontSize=10;movable=0;resizable=0;deletable=0;editable=0;locked=1;connectable=0;" vertex="1" parent="EAup55ecAgGyFru9o0X1-13">
          <mxGeometry y="78" width="120" height="26" as="geometry" />
        </mxCell>
        <mxCell id="EAup55ecAgGyFru9o0X1-17" value="- salary: double" style="text;align=left;verticalAlign=top;spacingLeft=4;spacingRight=4;overflow=hidden;rotatable=0;points=[[0,0.5],[1,0.5]];portConstraint=eastwest;fontFamily=Times New Roman;fontSize=10;movable=0;resizable=0;deletable=0;editable=0;locked=1;connectable=0;" vertex="1" parent="EAup55ecAgGyFru9o0X1-13">
          <mxGeometry y="104" width="120" height="26" as="geometry" />
        </mxCell>
        <mxCell id="EAup55ecAgGyFru9o0X1-18" value="- age: int" style="text;align=left;verticalAlign=top;spacingLeft=4;spacingRight=4;overflow=hidden;rotatable=0;points=[[0,0.5],[1,0.5]];portConstraint=eastwest;fontFamily=Times New Roman;fontSize=10;movable=0;resizable=0;deletable=0;editable=0;locked=1;connectable=0;" vertex="1" parent="EAup55ecAgGyFru9o0X1-13">
          <mxGeometry y="130" width="120" height="26" as="geometry" />
        </mxCell>
        <mxCell id="EAup55ecAgGyFru9o0X1-19" value="- department: String" style="text;align=left;verticalAlign=top;spacingLeft=4;spacingRight=4;overflow=hidden;rotatable=0;points=[[0,0.5],[1,0.5]];portConstraint=eastwest;fontFamily=Times New Roman;fontSize=10;movable=0;resizable=0;deletable=0;editable=0;locked=1;connectable=0;" vertex="1" parent="EAup55ecAgGyFru9o0X1-13">
          <mxGeometry y="156" width="120" height="26" as="geometry" />
        </mxCell>
        <mxCell id="EAup55ecAgGyFru9o0X1-20" value="- role: Role" style="text;align=left;verticalAlign=top;spacingLeft=4;spacingRight=4;overflow=hidden;rotatable=0;points=[[0,0.5],[1,0.5]];portConstraint=eastwest;fontFamily=Times New Roman;fontSize=10;movable=0;resizable=0;deletable=0;editable=0;locked=1;connectable=0;" vertex="1" parent="EAup55ecAgGyFru9o0X1-13">
          <mxGeometry y="182" width="120" height="26" as="geometry" />
        </mxCell>
        <mxCell id="EAup55ecAgGyFru9o0X1-21" value="" style="line;html=1;strokeWidth=1;align=left;verticalAlign=middle;spacingTop=-1;spacingLeft=3;spacingRight=3;rotatable=0;labelPosition=right;points=[];portConstraint=eastwest;fontFamily=Times New Roman;fontSize=10;movable=0;resizable=0;deletable=0;editable=0;locked=1;connectable=0;" vertex="1" parent="EAup55ecAgGyFru9o0X1-13">
          <mxGeometry y="208" width="120" height="8" as="geometry" />
        </mxCell>
        <mxCell id="EAup55ecAgGyFru9o0X1-22" value="" style="endArrow=block;endSize=10;endFill=0;shadow=0;strokeWidth=1;rounded=0;elbow=vertical;fontFamily=Times New Roman;fontSize=10;movable=0;resizable=0;rotatable=0;deletable=0;editable=0;locked=1;connectable=0;dashed=1;" edge="1" parent="1" source="EAup55ecAgGyFru9o0X1-13" target="EAup55ecAgGyFru9o0X1-1">
          <mxGeometry width="160" relative="1" as="geometry">
            <mxPoint x="210" y="373" as="sourcePoint" />
            <mxPoint x="310" y="271" as="targetPoint" />
          </mxGeometry>
        </mxCell>
        <mxCell id="EAup55ecAgGyFru9o0X1-23" value="BranchSupplier" style="swimlane;fontStyle=0;align=center;verticalAlign=top;childLayout=stackLayout;horizontal=1;startSize=26;horizontalStack=0;resizeParent=1;resizeLast=0;collapsible=1;marginBottom=0;rounded=0;shadow=0;strokeWidth=1;fontFamily=Times New Roman;fontSize=10;movable=0;resizable=0;rotatable=0;deletable=0;editable=0;locked=1;connectable=0;" vertex="1" parent="1">
          <mxGeometry x="231" y="290" width="138" height="100" as="geometry">
            <mxRectangle x="130" y="380" width="160" height="26" as="alternateBounds" />
          </mxGeometry>
        </mxCell>
        <mxCell id="EAup55ecAgGyFru9o0X1-24" value="- supply_type: String" style="text;align=left;verticalAlign=top;spacingLeft=4;spacingRight=4;overflow=hidden;rotatable=0;points=[[0,0.5],[1,0.5]];portConstraint=eastwest;fontFamily=Times New Roman;fontSize=10;movable=0;resizable=0;deletable=0;editable=0;locked=1;connectable=0;" vertex="1" parent="EAup55ecAgGyFru9o0X1-23">
          <mxGeometry y="26" width="138" height="26" as="geometry" />
        </mxCell>
        <mxCell id="EAup55ecAgGyFru9o0X1-25" value="- supplesToBranches: &#xa;HashMap&lt;Integer, Supply&gt;" style="text;align=left;verticalAlign=top;spacingLeft=4;spacingRight=4;overflow=hidden;rotatable=0;points=[[0,0.5],[1,0.5]];portConstraint=eastwest;rounded=0;shadow=0;html=0;fontFamily=Times New Roman;fontSize=10;movable=0;resizable=0;deletable=0;editable=0;locked=1;connectable=0;" vertex="1" parent="EAup55ecAgGyFru9o0X1-23">
          <mxGeometry y="52" width="138" height="38" as="geometry" />
        </mxCell>
        <mxCell id="EAup55ecAgGyFru9o0X1-26" value="" style="line;html=1;strokeWidth=1;align=left;verticalAlign=middle;spacingTop=-1;spacingLeft=3;spacingRight=3;rotatable=0;labelPosition=right;points=[];portConstraint=eastwest;fontFamily=Times New Roman;fontSize=10;movable=0;resizable=0;deletable=0;editable=0;locked=1;connectable=0;" vertex="1" parent="EAup55ecAgGyFru9o0X1-23">
          <mxGeometry y="90" width="138" height="8" as="geometry" />
        </mxCell>
        <mxCell id="EAup55ecAgGyFru9o0X1-27" value="" style="endArrow=block;endSize=10;endFill=0;shadow=0;strokeWidth=1;rounded=0;elbow=vertical;fontFamily=Times New Roman;fontSize=10;exitX=0.5;exitY=0;exitDx=0;exitDy=0;entryX=0.5;entryY=1;entryDx=0;entryDy=0;movable=0;resizable=0;rotatable=0;deletable=0;editable=0;locked=1;connectable=0;dashed=1;" edge="1" parent="1" source="EAup55ecAgGyFru9o0X1-23" target="EAup55ecAgGyFru9o0X1-1">
          <mxGeometry width="160" relative="1" as="geometry">
            <mxPoint x="208" y="346" as="sourcePoint" />
            <mxPoint x="274" y="242" as="targetPoint" />
          </mxGeometry>
        </mxCell>
      </root>
    </mxGraphModel>
  </diagram>
</mxfile>
